<svg xmlns="http://www.w3.org/2000/svg" shape-rendering="geometricPrecision" text-rendering="geometricPrecision" image-rendering="optimizeQuality" fill-rule="evenodd" clip-rule="evenodd" viewBox="0 0 512 86.832"><defs><linearGradient id="prefix__a" gradientUnits="userSpaceOnUse" x1="45.578" y1="3.495" x2="45.581" y2="82.745"><stop offset="0" stop-color="#CCC"/><stop offset=".471" stop-color="#B3B3B3"/><stop offset="1" stop-color="#999"/></linearGradient><linearGradient id="prefix__b" gradientUnits="userSpaceOnUse" x1="151.001" y1="3.495" x2="151.003" y2="82.745"><stop offset="0" stop-color="#CCC"/><stop offset=".471" stop-color="#B3B3B3"/><stop offset="1" stop-color="#999"/></linearGradient><linearGradient id="prefix__c" gradientUnits="userSpaceOnUse" x1="361.846" y1="3.495" x2="361.848" y2="81.799"><stop offset="0" stop-color="#CCC"/><stop offset=".471" stop-color="#B3B3B3"/><stop offset="1" stop-color="#999"/></linearGradient><linearGradient id="prefix__d" gradientUnits="userSpaceOnUse" x1="256.423" y1="3.495" x2="256.426" y2="80.538"><stop offset="0" stop-color="#CCC"/><stop offset=".471" stop-color="#B3B3B3"/><stop offset="1" stop-color="#999"/></linearGradient><linearGradient id="prefix__e" gradientUnits="userSpaceOnUse" x1="45.577" y1="3.495" x2="45.579" y2="64.504"><stop offset="0" stop-color="#FFD433"/><stop offset=".471" stop-color="#FABE2B"/><stop offset="1" stop-color="#F4A722"/></linearGradient><linearGradient id="prefix__f" gradientUnits="userSpaceOnUse" x1="467.267" y1="3.495" x2="467.27" y2="80.854"><stop offset="0" stop-color="#CCC"/><stop offset=".471" stop-color="#B3B3B3"/><stop offset="1" stop-color="#999"/></linearGradient></defs><path fill="#999" fill-rule="nonzero" d="M69.463 55.48l4.885 28.637c.078.49.006 1.011-.246 1.483a2.323 2.323 0 01-3.14.956L45.279 72.819 19.699 86.5a2.325 2.325 0 01-3.489-2.365l4.719-28.644L.738 34.907a2.326 2.326 0 011.262-4l28.203-4.038L43.198 1.29a2.325 2.325 0 014.157-.011l12.882 25.592 28.078 4.036a2.323 2.323 0 011.338 3.922L69.463 55.48z"/><path fill="url(#prefix__a)" d="M72.055 84.508l-5.084-29.802L87.987 33.21 58.707 29 45.279 2.326 31.727 29l-29.4 4.21 21.088 21.496-4.911 29.802 26.775-14.321z"/><path fill="#999" fill-rule="nonzero" d="M174.885 55.48l4.885 28.636a2.352 2.352 0 01-.246 1.483 2.321 2.321 0 01-3.14.956l-25.682-13.737-25.581 13.681a2.324 2.324 0 01-3.489-2.365l4.719-28.643-20.191-20.585a2.326 2.326 0 011.262-4l28.202-4.038L148.62 1.29a2.326 2.326 0 014.157-.012l12.882 25.592 28.078 4.036a2.324 2.324 0 011.337 3.923L174.885 55.48z"/><path fill="url(#prefix__b)" d="M177.477 84.507l-5.084-29.801 21.016-21.497L164.128 29 150.702 2.325 137.149 29l-29.4 4.209 21.087 21.497-4.91 29.801 26.776-14.321z"/><path fill="#999" fill-rule="nonzero" d="M385.731 55.48l4.884 28.636a2.352 2.352 0 01-.246 1.483 2.321 2.321 0 01-3.14.956l-25.682-13.737-25.581 13.681a2.325 2.325 0 01-3.489-2.365l4.72-28.643-20.192-20.585a2.326 2.326 0 011.262-4l28.203-4.038L359.466 1.29a2.326 2.326 0 014.156-.012l12.882 25.592 28.078 4.036a2.325 2.325 0 011.338 3.923L385.731 55.48z"/><path fill="url(#prefix__c)" d="M388.322 84.507l-5.084-29.801 21.016-21.497L374.974 29 361.547 2.325 347.994 29l-29.399 4.209 21.087 21.497-4.911 29.801 26.776-14.321z"/><path fill="#999" fill-rule="nonzero" d="M280.308 55.48l4.885 28.636a2.359 2.359 0 01-.246 1.483 2.322 2.322 0 01-3.14.956l-25.683-13.737-25.58 13.681a2.324 2.324 0 01-3.489-2.365l4.719-28.643-20.191-20.585a2.327 2.327 0 011.261-4l28.203-4.038L254.043 1.29a2.326 2.326 0 014.157-.012l12.881 25.592 28.078 4.036a2.324 2.324 0 011.338 3.923L280.308 55.48z"/><path fill="url(#prefix__d)" d="M282.899 84.507l-5.083-29.801 21.016-21.497L269.551 29 256.124 2.325 242.571 29l-29.399 4.209 21.087 21.497-4.91 29.801 26.775-14.321z"/><path fill="#F0B100" fill-rule="nonzero" d="M45.275 72.82L19.698 86.499a2.324 2.324 0 01-3.489-2.365l4.719-28.643L.737 34.906a2.325 2.325 0 011.262-4l28.202-4.037L43.197 1.29A2.316 2.316 0 0145.275 0v72.82z"/><path fill="url(#prefix__e)" d="M45.275 2.331L31.725 29 2.326 33.209l21.087 21.497-4.91 29.801 26.772-14.319z"/><path fill="#999" fill-rule="nonzero" d="M491.153 55.48l4.885 28.636a2.36 2.36 0 01-.247 1.483 2.321 2.321 0 01-3.14.956l-25.683-13.737-25.58 13.681a2.325 2.325 0 01-3.489-2.365l4.72-28.643-20.192-20.585a2.326 2.326 0 011.262-4l28.203-4.038L464.887 1.29a2.326 2.326 0 014.157-.012l12.882 25.592 28.078 4.036a2.325 2.325 0 011.338 3.923L491.153 55.48z"/><path fill="url(#prefix__f)" d="M493.744 84.507l-5.084-29.801 21.016-21.497L480.396 29 466.968 2.325 453.416 29l-29.4 4.209 21.088 21.497-4.911 29.801 26.775-14.321z"/></svg>