<?xml version="1.0" standalone="no"?>
<!DOCTYPE svg PUBLIC "-//W3C//DTD SVG 20010904//EN"
 "http://www.w3.org/TR/2001/REC-SVG-20010904/DTD/svg10.dtd">
<svg version="1.0" xmlns="http://www.w3.org/2000/svg"
 width="1024.000000pt" height="1024.000000pt" viewBox="0 0 1024.000000 1024.000000"
 preserveAspectRatio="xMidYMid meet">

<g transform="translate(0.000000,1024.000000) scale(0.100000,-0.100000)"
fill="#000000" stroke="none">
<path d="M7005 8250 c-353 -76 -647 -308 -805 -634 -213 -438 -136 -947 196
-1305 377 -407 1005 -479 1479 -170 91 59 237 198 304 288 171 230 250 515
221 797 -28 274 -138 503 -339 705 -152 153 -312 246 -522 305 -81 22 -118 27
-269 30 -146 3 -190 1 -265 -16z m336 -342 c54 -30 89 -91 89 -154 0 -90 -31
-141 -105 -175 -78 -36 -168 -13 -221 56 -39 51 -46 143 -15 202 47 93 156
124 252 71z m33 -539 l26 -20 2 -372 3 -372 62 -6 c72 -7 90 -19 99 -65 8 -43
-1 -79 -26 -104 -19 -19 -35 -20 -300 -20 l-280 0 -17 27 c-10 15 -18 46 -18
70 0 61 28 86 103 93 l57 5 3 296 2 296 -61 6 c-70 6 -96 24 -105 74 -7 38 10
88 35 103 9 5 100 10 202 10 173 0 188 -1 213 -21z"/>
<path d="M4158 8120 c-39 -30 -51 -71 -46 -153 6 -98 44 -173 128 -258 80 -80
145 -113 276 -140 54 -10 122 -31 151 -45 98 -47 173 -159 173 -256 l0 -38
-341 0 -341 0 -92 34 c-167 63 -269 78 -536 79 -204 0 -247 -2 -325 -20 -183
-43 -299 -105 -421 -227 -157 -157 -179 -214 -425 -1096 -268 -960 -290 -1160
-154 -1436 53 -108 143 -211 244 -278 88 -59 143 -82 243 -102 182 -37 363 15
522 148 43 36 234 245 546 596 160 181 221 229 335 265 70 22 71 22 875 22
l805 0 63 -23 c137 -49 169 -78 501 -451 169 -191 335 -370 367 -399 71 -63
186 -124 274 -147 96 -25 271 -17 362 17 102 38 173 85 258 169 84 84 141 180
180 304 31 99 38 275 16 420 -26 165 -143 695 -157 709 -3 3 -49 -5 -102 -19
-127 -32 -298 -46 -418 -35 -316 30 -565 145 -800 368 -276 263 -418 579 -436
975 l-6 127 -399 0 -398 0 0 36 c0 57 -29 153 -68 228 -72 138 -209 244 -363
281 -162 39 -188 48 -223 77 -45 37 -75 93 -82 155 -8 70 -23 102 -55 118 -40
21 -101 19 -131 -5z m-467 -1406 c17 -16 19 -31 19 -179 0 -112 4 -165 12
-173 8 -8 61 -12 170 -12 155 0 159 -1 183 -25 24 -23 25 -30 25 -143 0 -105
-2 -122 -21 -145 l-20 -27 -172 -2 -172 -3 -5 -171 c-4 -124 -9 -176 -19 -188
-11 -13 -35 -16 -152 -16 -179 0 -169 -12 -169 211 0 143 -2 168 -16 173 -9 3
-89 6 -179 6 -205 0 -195 -8 -195 166 0 175 -9 168 212 174 l173 5 5 166 c4
117 9 171 18 182 18 21 56 26 180 22 81 -2 107 -7 123 -21z m2222 -377 c112
-85 111 -242 -2 -322 -37 -26 -51 -30 -110 -30 -57 0 -74 4 -110 28 -75 50
-103 163 -62 252 34 75 90 106 182 102 54 -2 73 -8 102 -30z m402 -410 c167
-95 112 -349 -79 -365 -111 -9 -195 62 -204 174 -3 31 1 68 8 86 17 43 67 97
105 114 47 21 124 17 170 -9z"/>
<path d="M7432 3709 c-141 -21 -258 -106 -316 -229 -29 -61 -31 -72 -31 -185
0 -115 1 -123 32 -186 55 -112 139 -181 344 -285 226 -114 279 -163 279 -261
0 -101 -77 -173 -185 -173 -96 0 -171 63 -182 152 -10 79 -8 78 -153 78 -70 0
-135 -3 -144 -6 -24 -9 -21 -110 5 -186 50 -148 178 -258 338 -288 129 -24
303 -5 401 45 209 106 288 365 180 590 -48 101 -119 158 -321 260 -230 117
-279 162 -279 263 0 65 30 110 91 136 108 44 206 -13 233 -137 9 -38 31 -43
171 -37 l120 5 3 28 c5 40 -15 124 -42 184 -30 63 -95 136 -153 170 -97 57
-259 82 -391 62z"/>
<path d="M2483 3695 c-170 -38 -300 -176 -339 -357 -16 -77 -20 -755 -4 -839
33 -176 176 -328 339 -359 79 -15 228 -12 296 5 159 42 276 163 320 332 11 42
15 115 15 280 0 223 0 223 -22 228 -13 3 -120 4 -238 3 l-215 -3 -9 -57 c-4
-31 -4 -89 0 -130 l9 -73 93 -3 92 -3 0 -72 c0 -126 -33 -191 -115 -228 -115
-53 -235 11 -264 141 -14 59 -14 661 0 720 23 100 89 155 185 153 98 -2 154
-57 178 -174 l13 -64 124 -3 c167 -4 169 -3 169 56 0 101 -47 231 -111 313
-36 46 -114 97 -187 122 -76 25 -245 32 -329 12z"/>
<path d="M3628 3678 c-11 -9 -54 -157 -124 -423 -59 -225 -140 -536 -181 -690
-98 -371 -100 -382 -85 -397 19 -19 261 -24 285 -6 11 8 29 60 50 146 l32 133
200 0 200 0 34 -140 c29 -117 38 -141 55 -145 28 -8 235 -7 264 0 13 4 22 14
22 26 0 16 -55 228 -210 808 -21 80 -69 262 -105 405 -49 192 -72 265 -87 278
-17 15 -42 17 -177 17 -110 0 -162 -4 -173 -12z m237 -619 c30 -123 61 -248
69 -276 l15 -53 -143 0 -142 0 70 279 c39 154 72 278 74 276 2 -1 28 -103 57
-226z"/>
<path d="M4538 3680 c-17 -10 -18 -57 -18 -755 0 -663 2 -745 16 -759 12 -13
40 -16 134 -16 65 0 125 3 134 6 14 5 16 61 17 513 1 363 4 495 11 466 31
-121 221 -775 233 -802 l15 -33 119 0 c66 0 122 4 126 9 12 21 235 789 235
812 0 10 5 21 10 24 8 5 9 -144 4 -483 l-7 -490 22 -12 c34 -18 269 -10 281
10 13 20 13 1480 0 1500 -8 12 -42 15 -204 15 -124 0 -199 -4 -206 -11 -8 -8
-170 -620 -229 -868 -9 -38 -21 -71 -26 -73 -6 -2 -32 81 -59 184 -27 104 -82
316 -122 472 -40 156 -76 286 -79 290 -12 11 -389 12 -407 1z"/>
<path d="M6128 3679 c-17 -9 -18 -56 -18 -760 l0 -749 26 -10 c40 -16 736 -13
757 3 21 15 32 136 20 212 l-8 50 -245 5 -245 5 0 170 0 170 210 3 c152 2 211
6 217 15 4 6 8 67 8 134 0 111 -2 123 -19 133 -12 6 -101 10 -221 10 l-201 0
3 158 3 157 238 3 238 2 9 26 c6 14 10 72 10 130 0 157 36 144 -402 144 -228
0 -370 -4 -380 -11z"/>
</g>
</svg>
